<?xml version="1.0" standalone="no"?>
<!DOCTYPE svg PUBLIC "-//W3C//DTD SVG 20010904//EN"
 "http://www.w3.org/TR/2001/REC-SVG-20010904/DTD/svg10.dtd">
<svg version="1.0" xmlns="http://www.w3.org/2000/svg"
 width="700.000000pt" height="700.000000pt" viewBox="0 0 700.000000 700.000000"
 preserveAspectRatio="xMidYMid meet">
<metadata>
Created by potrace 1.11, written by Peter Selinger 2001-2013
</metadata>
<g transform="translate(0.000000,700.000000) scale(0.100000,-0.100000)"
fill="#000000" stroke="none">
<path d="M2428 6435 c-1 -1 -39 -5 -83 -9 -44 -3 -100 -10 -125 -15 -56 -12
-184 -58 -230 -82 -19 -11 -38 -19 -42 -19 -19 0 -164 -108 -226 -168 -111
-109 -192 -232 -237 -362 -5 -14 -28 -98 -32 -115 -2 -11 -7 -31 -10 -45 -10
-38 -11 -4125 -2 -4205 5 -38 10 -77 12 -85 42 -181 129 -335 261 -465 134
-133 300 -228 486 -277 83 -22 291 -30 389 -15 150 24 226 58 549 249 354 209
522 308 557 328 17 9 125 73 240 142 286 170 593 351 635 376 131 75 1628 962
1680 995 290 186 454 485 453 827 0 263 -83 481 -258 679 -55 62 -176 151
-323 239 -81 48 -151 89 -157 92 -5 3 -73 43 -150 89 -77 46 -200 119 -272
163 -73 43 -195 115 -270 159 -76 45 -151 90 -168 99 -16 9 -86 51 -155 92
-69 41 -318 189 -555 328 -236 139 -464 273 -505 298 -41 25 -88 53 -105 62
-16 9 -91 53 -165 97 -74 44 -160 94 -190 112 -30 17 -62 35 -70 40 -119 72
-488 287 -516 302 -39 20 -170 65 -215 75 -13 2 -58 7 -99 10 -41 3 -80 7 -87
9 -6 2 -13 2 -15 0z m380 -1054 c23 -7 80 -34 128 -61 47 -28 87 -50 89 -50 4
0 204 -118 214 -126 2 -2 5 -382 7 -846 2 -608 6 -854 14 -884 21 -75 121
-154 210 -166 19 -3 55 0 80 6 38 10 251 130 585 330 39 24 104 62 145 86 41
24 107 62 145 85 309 183 574 335 584 335 28 0 418 -239 467 -287 84 -81 123
-180 122 -310 -1 -134 -44 -236 -135 -320 -28 -25 -474 -295 -663 -401 -25
-14 -56 -33 -70 -43 -14 -9 -119 -72 -235 -139 -115 -68 -280 -165 -365 -215
-85 -51 -171 -102 -190 -113 -19 -11 -242 -142 -495 -292 -626 -370 -612 -363
-725 -374 -56 -5 -170 24 -235 60 -115 65 -206 190 -221 304 -9 69 -11 2925
-3 3038 8 100 47 189 114 256 113 115 288 166 433 127z"/>
</g>
</svg>
